<?xml version="1.0" encoding="UTF-8" standalone="no"?>
<!DOCTYPE svg PUBLIC "-//W3C//DTD SVG 1.1//EN" "http://www.w3.org/Graphics/SVG/1.1/DTD/svg11.dtd">
<svg width="100%" height="100%" viewBox="0 0 1000 1000" version="1.1" xmlns="http://www.w3.org/2000/svg" xmlns:xlink="http://www.w3.org/1999/xlink" xml:space="preserve" xmlns:serif="http://www.serif.com/" style="fill-rule:evenodd;clip-rule:evenodd;stroke-linejoin:round;stroke-miterlimit:2;">
    <g transform="matrix(2,0,0,2,0,0)">
        <path d="M412.151,270.209C411.889,270.215 411.626,270.208 411.508,270.222C410.043,270.379 408.586,270.616 407.146,270.926C404.2,271.559 401.321,272.508 398.583,273.769C406.457,268.086 412.182,259.636 414.633,250.267C414.207,257.033 413.373,263.688 412.151,270.209ZM408.111,286.868C405.808,283.772 403.072,280.962 400.019,278.609C403.122,279.859 406.395,280.715 409.709,281.183C409.213,283.093 408.674,284.985 408.111,286.868ZM400.914,306.348C393.852,305.292 386.549,306.06 379.876,308.612C387.697,302.473 393.144,293.539 395.052,283.785C395.06,283.882 395.084,283.977 395.091,284.073C395.098,283.977 395.122,283.881 395.13,283.784C395.894,287.729 397.244,291.552 399.094,295.118C400.011,296.887 401.073,298.572 402.229,300.194C402.496,300.568 402.773,300.934 403.054,301.298C402.368,302.995 401.654,304.679 400.914,306.348ZM389.955,326.951C387.178,321.981 383.231,317.579 378.685,314.182C383.952,316.438 389.71,317.577 395.44,317.526C393.715,320.733 391.883,323.875 389.955,326.951ZM379.493,341.783C372.635,340.977 365.646,341.84 359.222,344.396C367.592,337.726 373.186,327.856 374.594,317.243C375.201,321.79 376.575,326.253 378.616,330.36C379.605,332.351 380.764,334.266 382.062,336.069C382.336,336.45 382.692,336.831 382.964,337.231C381.831,338.768 380.677,340.287 379.493,341.783ZM365.365,357.459C363.022,354.545 360.293,351.923 357.264,349.732C361.16,351.518 365.347,352.673 369.603,353.178C368.218,354.633 366.801,356.056 365.365,357.459ZM342.689,376.016C348.221,370.167 352.037,362.747 353.492,354.811C353.511,354.986 353.529,355.163 353.547,355.34C353.566,355.164 353.586,354.988 353.604,354.813C354.043,357.296 354.688,359.731 355.557,362.1C355.762,362.66 355.983,363.214 356.214,363.765C356.376,364.149 356.734,364.682 356.928,365.157C352.386,369.024 347.636,372.653 342.689,376.016ZM332.985,379.655C331.787,367.54 325.146,356.281 315.119,349.377C325.505,354.371 337.856,354.835 348.568,350.571C344.765,353.603 341.49,357.318 338.954,361.469C335.6,366.959 333.534,373.244 332.985,379.655ZM313.396,377.771C306.85,377.771 300.329,379.341 294.494,382.307C304.217,375.665 310.797,365.026 312.318,353.339C313.787,363.89 319.354,373.684 327.693,380.316C323.121,378.651 318.264,377.771 313.396,377.771ZM304.476,395.256C301.92,391.556 298.702,388.309 295.147,385.566C302.828,389.204 311.488,390.385 319.843,389.003C314.851,391.336 309.724,393.426 304.476,395.256ZM288.793,399.86C290.083,396.923 291.104,393.816 291.559,390.642C291.582,390.872 291.605,391.103 291.63,391.333C291.648,391.168 291.667,391.003 291.686,390.837C292.148,393.476 292.883,396.063 293.845,398.562C292.171,399.021 290.487,399.454 288.793,399.86ZM271.635,377.771C265.946,377.771 260.209,378.739 254.912,380.842C263.732,374.105 269.695,363.882 271.125,352.866C272.684,364.083 278.851,374.483 288.02,381.14C282.854,378.937 277.252,377.771 271.635,377.771ZM276.483,402.317C273.553,402.786 270.598,403.182 267.617,403.493C267.524,403.275 267.443,403.048 267.353,402.839C267.078,402.211 266.789,401.59 266.484,400.976C265.867,399.73 265.184,398.521 264.453,397.339C261.854,393.132 258.621,389.284 254.761,386.179C265.163,390.659 277.083,390.701 287.521,386.285C282.556,390.373 277.735,395.817 276.483,402.317ZM250.409,404.391C248.449,404.391 246.5,404.344 244.556,404.275C247.349,399.494 249.336,394.205 250.179,388.727C250.783,394.135 252.344,399.588 255.088,404.32C253.533,404.364 251.975,404.391 250.409,404.391ZM234.394,398.872C233.676,400.131 233.028,401.428 232.446,402.754C232.369,402.929 232.293,403.167 232.205,403.379C230.263,403.164 228.331,402.918 226.41,402.636C226.37,402.524 226.334,402.426 226.311,402.373C226.167,402.059 226.021,401.745 225.87,401.435C225.246,400.144 224.552,398.888 223.798,397.669C221.045,393.219 217.512,389.244 213.339,386.079C218.32,388.118 223.71,389.461 229.107,389.588C234.704,389.72 240.281,388.506 245.419,386.32C240.99,389.739 237.171,394.007 234.394,398.872ZM209.218,376.926C207.514,366.435 201.641,356.829 193.228,350.365C202.948,354.391 213.982,354.733 223.867,351.071C219.264,354.873 215.53,359.68 212.924,365.046C211.105,368.791 209.841,372.808 209.218,376.926ZM206.681,398.482C207.915,395.371 208.809,392.124 209.27,388.808C209.753,392.617 210.746,396.366 212.228,399.91C210.366,399.466 208.518,398.989 206.681,398.482ZM196.169,395.195C190.803,393.316 185.563,391.168 180.465,388.765C188.584,390.357 197.041,389.517 204.738,386.415C201.479,388.908 198.59,391.882 196.169,395.195ZM173.984,380.085C181.506,373.937 186.692,365.184 188.502,355.636C190.445,365.909 196.296,375.049 204.7,381.237C200.141,379.464 195.084,377.675 190.151,377.476C184.266,377.237 178.164,378.662 172.801,381.025C173.202,380.721 173.594,380.403 173.984,380.085ZM169.6,369.922C169.197,371.15 168.853,372.397 168.568,373.658C168.425,374.292 168.297,374.928 168.184,375.567C168.097,376.061 167.832,377.138 167.877,377.438C166.281,366.857 160.556,357.156 152.058,350.646C161.809,354.557 172.737,354.554 182.546,350.863C178.598,354.148 175.28,358.156 172.785,362.646C171.497,364.965 170.425,367.401 169.6,369.922ZM143.755,365.044C145.444,361.306 146.587,357.305 147.126,353.24C148.211,361.383 151.752,369.15 157.147,375.335C152.505,372.131 148.036,368.695 143.755,365.044ZM130.854,314.45C141.185,318.798 153.166,318.769 163.481,314.391C154.574,321.059 148.595,331.271 147.126,342.299C146.525,337.777 145.167,333.352 143.143,329.266C140.272,323.469 136.028,318.342 130.854,314.45ZM135.456,357.463C134.064,356.103 132.688,354.727 131.346,353.318C135.241,352.879 139.072,351.905 142.689,350.39C139.999,352.439 137.574,354.826 135.456,357.463ZM122.235,342.238C122.083,342.255 121.918,342.286 121.752,342.313C120.534,340.787 119.339,339.239 118.173,337.669C120.971,335.514 122.564,331.953 123.671,328.709C124.942,324.982 125.7,321.083 126.209,317.185C127.586,328.149 133.4,338.284 142.174,345.009C137.963,343.319 133.459,342.327 128.929,342.073C126.697,341.947 124.459,341.999 122.235,342.238ZM111.109,327.346C109.115,324.184 107.222,320.951 105.442,317.649C111.562,317.694 117.707,316.373 123.26,313.809C120.875,315.504 118.677,317.465 116.7,319.621C114.547,321.97 112.671,324.568 111.109,327.346ZM102.797,306.148C102.125,306.195 101.455,306.25 100.786,306.333C100.506,306.367 100.227,306.408 99.946,306.446C99.195,304.758 98.473,303.054 97.778,301.335C97.899,301.192 98.029,301.053 98.13,300.918C98.475,300.457 98.813,299.989 99.139,299.515C99.848,298.484 100.507,297.414 101.118,296.323C103.48,292.107 105.109,287.462 105.893,282.692C107.619,293.224 113.479,302.936 122.008,309.354C115.975,306.807 109.33,305.695 102.797,306.148ZM92.84,287.319C89.448,276.088 87.219,264.358 86.311,252.264C89.369,262.166 96.15,270.794 105.108,276.057C101.662,278.132 98.535,280.713 95.817,283.674C94.757,284.829 93.767,286.052 92.84,287.319ZM92.764,192.588C96.075,197.159 100.326,201.078 105.164,203.98C96.142,209.262 89.323,217.971 86.275,227.945C87.15,215.746 89.364,203.914 92.764,192.588ZM99.8,173.539C107.337,174.614 115.146,173.577 122.148,170.589C113.578,177.059 107.646,186.735 105.898,197.345C105.198,193.055 103.818,188.876 101.833,185.011C100.876,183.149 99.783,181.355 98.555,179.661C98.276,179.275 97.986,178.897 97.695,178.521C98.37,176.846 99.073,175.186 99.8,173.539ZM110.777,152.837C113.584,157.803 117.426,162.206 121.985,165.632C116.711,163.407 110.979,162.294 105.256,162.356C106.992,159.116 108.835,155.943 110.777,152.837ZM121.396,137.78C128.593,138.604 135.971,137.578 142.641,134.726C133.903,141.265 127.862,151.316 126.317,162.132C125.545,157.173 123.75,152.39 121.579,147.886C120.586,145.825 119.517,143.766 118.285,141.83C119.302,140.463 120.339,139.114 121.396,137.78ZM136.917,120.762C139.412,124.417 142.5,127.722 145.52,130.926C141.009,128.625 136.093,127.177 131.058,126.643C132.962,124.635 134.915,122.672 136.917,120.762ZM157.923,103.779C152.086,110.042 148.262,118.066 147.112,126.578C146.741,123.885 146.103,121.221 145.223,118.649C144.805,117.429 144.333,116.223 143.807,115.045C143.756,114.933 143.696,114.82 143.638,114.708C148.193,110.814 152.96,107.164 157.923,103.779ZM167.622,101.806C169.004,112.054 174.275,121.635 182.179,128.297C172.155,124.957 160.908,125.633 151.208,129.78C155.05,126.9 158.394,123.333 161.039,119.327C164.5,114.085 166.792,108.036 167.622,101.806ZM204.54,98.77C195.943,105.19 190.014,114.939 188.309,125.536C187.453,120.332 185.588,115.299 182.876,110.78C181.502,108.492 179.917,106.343 178.135,104.357C177.291,103.416 176.4,102.51 175.473,101.65C175.002,101.213 174.521,100.787 174.035,100.369C173.604,99.998 172.813,99.215 172.438,99.064C182.652,103.191 194.402,103.079 204.54,98.77ZM195.001,84.869C197.252,88.213 200.322,91.082 203.632,93.332C195.707,90.379 187.134,89.712 178.93,91.612C184.14,89.089 189.505,86.841 195.001,84.869ZM211.984,79.802C210.529,83.227 209.53,86.833 209.031,90.52C208.75,87.338 208.044,84.013 206.343,81.262C208.21,80.742 210.091,80.257 211.984,79.802ZM213.477,93.561C218.855,89.455 223.248,84.023 226.04,77.855C226.167,77.575 226.297,77.295 226.424,77.015C228.535,76.705 230.658,76.434 232.793,76.206C232.902,76.493 232.992,76.824 233.072,77.006C233.253,77.42 233.44,77.832 233.636,78.239C235.115,81.31 236.969,84.177 239.139,86.805C241.6,89.786 244.497,92.438 247.687,94.621C236.941,89.446 224.102,89.169 213.129,93.834C213.246,93.743 213.361,93.652 213.477,93.561ZM250.409,75.261C252.247,75.261 254.075,75.303 255.899,75.363C252.981,80.38 251.13,85.996 250.499,91.766C249.869,86 248.029,80.374 245.112,75.355C246.872,75.299 248.636,75.261 250.409,75.261ZM265.983,80.868C266.718,79.581 267.377,78.25 267.97,76.891C268.05,76.706 268.12,76.45 268.213,76.228C270.188,76.441 272.153,76.691 274.107,76.975C274.249,77.297 274.395,77.619 274.544,77.938C275.094,79.111 275.691,80.259 276.349,81.375C279.078,86.013 282.684,90.112 286.974,93.37C276.49,89.14 264.439,89.39 254.133,94.015C258.957,90.536 263.034,86.036 265.983,80.868ZM285.128,100.391C277.563,106.912 272.482,116.128 271.015,126.008C269.386,114.896 263.247,104.794 254.142,98.225C264.461,102.851 276.528,103.093 287.019,98.847C286.371,99.341 285.744,99.86 285.128,100.391ZM291.806,101.651C293.292,112.653 299.294,122.865 308.165,129.535C298.129,125.144 286.54,124.908 276.326,128.863C280.907,125.237 284.709,120.638 287.416,115.462C289.664,111.164 291.165,106.461 291.806,101.651ZM294.204,81.188C293.052,84.193 292.229,87.343 291.803,90.53C291.312,86.846 290.306,83.226 288.851,79.806C290.646,80.238 292.431,80.698 294.204,81.188ZM298.859,99.684C308.32,102.883 318.853,102.575 328.107,98.818C319.76,105.324 314.203,114.89 312.487,125.319C310.771,114.884 305.003,105.266 296.595,98.851C297.341,99.152 298.098,99.426 298.859,99.684ZM297.024,93.045C299.017,91.492 300.854,89.768 302.528,87.877C303.438,86.85 304.285,85.775 305.097,84.669L305.125,84.625C310.612,86.565 315.969,88.783 321.173,91.271C313.022,89.512 304.392,90.22 296.647,93.356C296.773,93.253 296.899,93.15 297.024,93.045ZM349.232,129.605C338.691,125.098 326.513,125.177 316.024,129.785C325.09,123.181 331.262,112.961 332.851,101.854C334.38,112.806 340.381,122.975 349.232,129.605ZM356.872,114.447C355.275,117.873 354.136,121.522 353.523,125.25C352.237,117.406 348.628,109.965 343.305,104.063C348.009,107.292 352.536,110.76 356.872,114.447ZM365.6,122.422C368.209,124.982 370.732,127.628 373.168,130.356C369.566,129.05 365.642,128.89 361.878,129.586C360.298,129.878 358.744,130.313 357.237,130.867C356.649,131.083 356.068,131.318 355.497,131.573C355.362,131.633 354.542,132.135 354.427,132.074C355.851,131.232 357.221,130.296 358.535,129.293C361.154,127.292 363.521,124.98 365.6,122.422ZM382.727,142.097C382.448,142.504 382.09,142.889 381.805,143.281C380.423,145.182 379.189,147.207 378.156,149.318C376.154,153.413 374.77,157.855 374.196,162.381C372.686,151.395 366.674,141.2 357.8,134.55C364.529,137.427 372.002,138.463 379.262,137.583C380.442,139.067 381.598,140.571 382.727,142.097ZM389.902,152.617C391.857,155.733 393.715,158.916 395.462,162.167C389.718,162.112 383.94,163.25 378.661,165.511C380.477,164.145 382.195,162.611 383.763,160.966C386.146,158.464 388.21,155.632 389.902,152.617ZM400.931,173.342C401.685,175.043 402.411,176.758 403.108,178.488C402.849,178.792 402.537,179.094 402.383,179.307C402.065,179.744 401.752,180.186 401.451,180.634C400.791,181.618 400.168,182.627 399.596,183.664C397.274,187.869 395.661,192.471 394.898,197.215C393.182,186.774 387.406,177.149 378.991,170.732C385.288,173.314 392.293,174.287 399.057,173.583C399.684,173.517 400.307,173.433 400.931,173.342ZM409.725,198.528C407.25,198.876 404.791,199.435 402.426,200.232C401.06,200.692 399.711,201.208 398.403,201.813C397.538,202.213 396.563,202.517 395.728,202.963C397.839,201.116 399.873,199.174 401.759,197.096C403.807,194.839 405.857,192.338 407.098,189.513C408.054,192.483 408.936,195.487 409.725,198.528ZM410.484,236.963C400.335,232.915 388.813,233.057 378.765,237.352C387.32,230.93 393.218,221.212 394.918,210.647C396.631,221.049 402.382,230.647 410.748,237.063L410.484,236.963ZM391.52,257.31C388.697,251.597 384.556,246.532 379.497,242.65C389.453,246.672 400.792,246.678 410.742,242.633C402.67,248.779 397.076,257.839 395.143,267.795C395.136,267.703 395.112,267.612 395.106,267.521C395.1,267.617 395.075,267.712 395.067,267.809C394.362,264.17 393.162,260.632 391.52,257.31ZM369.806,291.594C367.036,286.558 363.211,282.112 358.648,278.615C369.185,282.84 381.278,282.557 391.6,277.827C382.324,284.478 376.077,294.851 374.592,306.173C373.92,301.071 372.284,296.1 369.806,291.594ZM337.461,309.099L337.715,308.896C346.412,302.206 352.261,292.092 353.715,281.213C355.188,292.29 361.219,302.592 370.177,309.276C359.839,304.855 347.843,304.786 337.461,309.099ZM338.771,314.895C348.448,318.292 359.275,318.472 368.903,314.814C363.633,318.944 359.418,324.377 356.66,330.473C355.278,333.526 354.267,336.748 353.66,340.044C353.643,339.875 353.625,339.705 353.607,339.536C353.589,339.702 353.57,339.869 353.552,340.035C351.84,330.186 346.538,321.187 338.771,314.895ZM316.708,344.647C325.783,337.796 331.78,327.291 333.05,315.986C334.271,327.728 340.602,338.675 350.16,345.6C339.188,340.589 326.249,340.617 315.301,345.679C315.779,345.349 316.244,344.998 316.708,344.647ZM308.43,329.432C305.4,323.242 300.809,317.857 295.195,313.86C305.747,318.592 318.138,318.763 328.809,314.3C319.9,320.991 313.801,331.171 312.301,342.229C311.711,337.791 310.396,333.451 308.43,329.432ZM309.087,349.232C302.102,354.072 296.679,361.068 293.7,369.024C292.845,371.31 292.187,373.668 291.746,376.068C291.729,375.891 291.71,375.714 291.691,375.537C291.672,375.717 291.652,375.897 291.633,376.077C289.791,365.771 283.857,356.404 275.526,350.103C286.23,354.398 298.618,354.063 309.087,349.232ZM275.755,344.804C284.327,338.061 290.311,328.097 291.801,317.251C292.606,323.421 294.82,329.33 298.193,334.551C299.897,337.189 301.928,339.608 304.192,341.782C305.683,343.213 307.309,344.488 308.87,345.838C298.326,341.04 285.913,340.913 275.194,345.251C275.385,345.106 275.567,344.951 275.755,344.804ZM266.94,329.285C263.788,322.943 258.991,317.39 253.139,313.391C263.415,318.344 275.587,318.837 286.237,314.759C277.821,321.564 272.364,331.638 271.047,342.361C270.378,337.826 268.979,333.391 266.94,329.285ZM237.203,353.274C236.011,352.089 234.743,350.977 233.4,349.964C238.611,352.248 244.206,353.575 249.908,353.649C255.729,353.724 261.604,352.227 266.943,349.982C257.536,357.229 251.093,368.449 250.04,380.318C248.635,370.253 244.468,360.502 237.203,353.274ZM229.721,354.655C231.458,365.042 237.357,374.532 245.712,380.904C235.596,376.709 224.119,376.801 214.022,381.025C218.93,377.189 222.948,372.247 225.768,366.697C227.687,362.919 229.032,358.837 229.721,354.655ZM193.225,344.871C201.742,338.142 207.555,328.132 209.015,317.36C210.54,328.614 216.803,338.918 225.93,345.627C217.088,342.065 207.276,341.005 197.99,343.376C196.324,343.801 194.684,344.331 193.088,344.972L193.225,344.871ZM183.755,327.112C181.016,322.313 177.29,318.046 172.908,314.681C182.863,318.702 194.203,318.708 204.153,314.663C196.029,320.847 190.411,329.989 188.516,340.017C187.66,335.497 186.036,331.107 183.755,327.112ZM168.009,317.299C169.436,328.241 175.506,338.433 184.217,345.152C173.935,340.878 162.26,340.742 151.956,345.031C156.939,341.214 161.04,336.248 163.869,330.647C165.979,326.473 167.389,321.937 168.009,317.299ZM162.92,291.313C159.953,286.074 155.859,281.473 150.971,277.95C161.721,282.758 174.319,282.757 185.068,277.949C175.748,284.612 169.478,295.024 168.003,306.393C167.3,301.101 165.549,295.954 162.92,291.313ZM130.716,309.353C139.61,302.709 145.599,292.575 147.111,281.572C148.591,292.392 154.408,302.424 163.073,309.072C152.496,304.8 140.395,305.087 130.037,309.866C130.268,309.701 130.488,309.522 130.716,309.353ZM110.902,278.876C121.049,282.878 132.607,282.724 142.641,278.435C133.845,285.02 127.887,295.07 126.301,305.937C125.005,296.813 120.52,288.461 113.999,282.006C112.753,280.772 111.439,279.608 110.062,278.523C110.342,278.642 110.62,278.765 110.902,278.876ZM90.816,243.089C100.887,246.948 112.256,246.731 122.173,242.481C113.584,248.868 107.647,258.572 105.905,269.134C104.224,258.81 98.531,249.291 90.266,242.884C90.449,242.954 90.632,243.022 90.816,243.089ZM109.854,222.963C112.719,228.603 116.88,233.59 121.926,237.408C111.897,233.178 100.372,233.083 90.266,237.12C98.522,230.72 104.211,221.215 105.9,210.904C106.587,215.092 107.933,219.179 109.854,222.963ZM112.35,207.377C122.054,210.904 132.908,210.703 142.468,206.78C133.507,213.674 127.692,224.091 126.502,235.327C125.003,225.72 120.344,216.855 113.581,209.909C112.341,208.635 111.033,207.425 109.662,206.294C110.547,206.689 111.439,207.046 112.35,207.377ZM131.142,188.406C133.996,193.549 137.93,198.105 142.643,201.636C132.71,197.388 121.265,197.19 111.188,201.077C119.119,194.976 124.681,186.065 126.664,176.257C127.502,180.502 129.043,184.625 131.142,188.406ZM150.817,150.212C153.681,156.215 157.994,161.52 163.302,165.534C152.96,161.232 140.975,161.293 130.673,165.692C139.59,159.054 145.598,148.873 147.111,137.862C147.695,142.137 148.961,146.32 150.817,150.212ZM182.012,135.967C174.476,142.359 169.34,151.387 167.782,161.157C165.917,150.145 159.495,140.138 150.317,133.792C160.236,138.619 171.948,139.325 182.362,135.669C182.245,135.768 182.128,135.867 182.012,135.967ZM195.292,135.753C204.996,139.132 215.67,138.748 225.157,134.841C216.073,141.861 210.188,152.793 209.193,164.213C208.073,152.609 201.931,141.713 192.603,134.725C193.483,135.102 194.387,135.438 195.292,135.753ZM211.029,110.084C213.676,117.605 218.525,124.282 224.845,129.146C214.956,125.06 203.696,124.997 193.753,128.931C202.118,122.158 207.671,112.193 208.994,101.509C209.367,104.426 210.053,107.31 211.029,110.084ZM247.571,97.703C237.929,104.351 231.406,115.007 229.88,126.623C228.252,114.612 221.225,103.448 210.911,97.019C218.995,100.307 228.144,101.143 236.753,100.029C240.626,99.528 244.442,98.615 248.132,97.336C247.943,97.456 247.756,97.578 247.571,97.703ZM250.801,126.026C245.273,126.026 239.755,127.136 234.657,129.274C243.455,122.399 249.254,112.02 250.501,100.929C251.721,111.781 257.299,121.938 265.784,128.81C261.015,126.978 255.911,126.026 250.801,126.026ZM274.602,149.968C277.397,155.862 281.59,161.09 286.748,165.089C276.506,160.999 264.825,161.17 254.705,165.551C263.558,158.863 269.494,148.673 270.938,137.672C271.514,141.926 272.763,146.091 274.602,149.968ZM291.868,159.836C291.861,159.74 291.843,159.644 291.83,159.548C291.823,159.644 291.799,159.738 291.791,159.833C289.73,149.231 283.424,139.651 274.565,133.489C284.976,137.221 297.271,139.017 307.76,134.634C299.634,140.762 293.864,149.848 291.868,159.836ZM316.443,150.933C319.309,156.573 323.473,161.564 328.521,165.381C318.487,161.152 306.966,161.05 296.855,165.088C305.111,158.691 310.802,149.185 312.489,138.874C313.176,143.062 314.521,147.15 316.443,150.933ZM332.657,161.378C330.969,150.706 325.078,140.851 316.426,134.362C326.151,138.628 337.336,138.988 347.321,135.397C339.483,141.918 334.164,151.288 332.657,161.378ZM367.157,164.439C357.461,161.158 346.638,161.565 337.22,165.588C345.845,159.174 351.782,149.407 353.525,138.803C355.242,149.238 361.01,158.855 369.418,165.271C368.674,164.97 367.918,164.697 367.157,164.439ZM369.76,170.713C361.146,177.254 355.341,187.072 353.777,197.778C352.369,187.361 346.953,177.716 338.814,171.067C348.816,174.875 360.176,174.697 370.032,170.499C369.941,170.57 369.851,170.642 369.76,170.713ZM390.527,201.434C380.147,197.026 368.173,197.022 357.797,201.46C366.736,194.758 372.779,184.448 374.228,173.367C375.773,184.666 382.067,195.124 391.336,201.772C391.069,201.652 390.796,201.548 390.527,201.434ZM374.402,233.049C372.54,221.687 365.829,211.37 356.239,205.012C365.208,209.444 376.32,209.504 385.955,207.534C387.625,207.192 389.315,206.794 390.898,206.153C389.768,207.257 388.41,208.164 387.238,209.237C385.957,210.41 384.764,211.688 383.646,213.015C381.358,215.731 379.416,218.757 377.891,221.962C376.222,225.47 375.035,229.216 374.402,233.049ZM358.085,273.349C366.696,266.947 372.654,257.227 374.397,246.634C376.104,257.003 381.86,266.577 390.183,272.988C385.093,270.942 379.544,269.89 374.057,269.976C371.222,270.02 368.375,270.345 365.605,270.955C364.222,271.26 362.853,271.641 361.507,272.086C360.802,272.319 360.104,272.574 359.411,272.844C359.143,272.949 358.875,273.056 358.607,273.164C358.551,273.187 357.893,273.492 358.085,273.349ZM349.732,257.235C346.861,251.438 342.615,246.31 337.442,242.418C347.774,246.765 359.757,246.734 370.075,242.359C361.166,249.027 355.185,259.24 353.716,270.269C353.114,265.748 351.756,261.32 349.732,257.235ZM329.124,292.891C326.3,287.282 322.216,282.294 317.26,278.433C327.605,282.7 339.515,282.594 349.786,278.149C340.835,284.787 334.741,295.038 333.221,306.082C332.613,301.5 331.202,297.016 329.124,292.891ZM298.374,307.562C306.168,300.936 311.327,291.435 312.678,281.294C313.429,286.937 315.332,292.631 318.388,297.451C321.201,301.89 325.095,305.558 329.316,308.643C319.261,304.747 307.676,304.381 297.563,308.247C297.839,308.024 298.104,307.79 298.374,307.562ZM287.868,293.531C284.893,287.476 280.458,282.145 275.009,278.155C285.899,282.798 298.615,282.54 309.317,277.484C299.781,284.154 293.3,294.824 291.792,306.366C291.192,301.913 289.848,297.562 287.868,293.531ZM255.002,309.019C263.695,302.327 269.507,292.267 270.938,281.385C272.47,292.689 278.742,303.106 288.024,309.742C277.45,304.991 265.071,304.896 254.423,309.473C254.62,309.326 254.808,309.169 255.002,309.019ZM250.459,303.808C250.449,303.691 250.421,303.576 250.413,303.461C250.407,303.579 250.38,303.697 250.371,303.815C248.376,293.705 242.516,284.481 234.25,278.335C244.052,282.444 255.334,282.657 265.267,278.861C259.506,283.512 255.055,289.735 252.445,296.658C251.571,298.977 250.904,301.371 250.459,303.808ZM236.949,343.258C244.02,337.035 248.892,328.439 250.528,319.156C252.476,329.28 258.178,338.59 266.362,344.871C256.769,340.927 245.757,340.515 235.989,344.088C236.315,343.818 236.631,343.537 236.949,343.258ZM246.059,314.294C237.437,320.689 231.465,330.433 229.717,341.027C227.993,330.646 222.246,321.064 213.895,314.66C224.176,318.844 235.873,318.704 246.059,314.294ZM229.901,281.268C231.483,292.986 238.146,303.764 247.949,310.383C237.921,307.912 227.328,307.258 217.137,309.121C215.502,309.42 213.878,309.785 212.277,310.233C221.896,303.555 228.392,292.88 229.901,281.268ZM204.04,291.537C201.047,286.191 196.887,281.496 191.905,277.923C202.692,282.767 215.353,282.768 226.138,277.915C216.847,284.566 210.525,295.049 209.014,306.38C209.014,305.287 208.641,304.078 208.404,303.012C208.099,301.638 207.726,300.289 207.294,298.95C206.465,296.376 205.359,293.896 204.04,291.537ZM188.328,282.678C190.042,293.078 195.792,302.678 204.159,309.093C193.954,304.944 182.306,305.051 172.177,309.381C178.036,304.983 182.688,299.02 185.55,292.28C186.856,289.208 187.798,285.975 188.328,282.678ZM184.689,257.824C181.84,251.938 177.594,246.719 172.391,242.755C182.614,246.901 194.394,246.793 204.544,242.48C195.944,248.899 190.014,258.646 188.309,269.245C187.66,265.3 186.429,261.425 184.689,257.824ZM167.637,245.326C169.172,256.735 175.542,267.248 184.929,273.908C174.25,269.039 161.844,268.916 151.069,273.57C160.106,266.847 166.189,256.5 167.637,245.326ZM143.174,257.373C140.307,251.57 136.069,246.469 130.894,242.578C141.202,246.912 153.151,246.908 163.444,242.528C154.561,249.161 148.612,259.27 147.117,270.253C146.512,265.782 145.172,261.416 143.174,257.373ZM130.848,258.762C133.861,264.663 138.269,269.85 143.646,273.73C133.082,269.008 120.78,268.934 110.153,273.492C117.607,267.699 123.059,259.655 125.542,250.541C126.012,248.818 126.377,247.067 126.63,245.3C127.258,249.979 128.701,254.558 130.848,258.762ZM146.936,210.833C148.653,221.268 154.42,230.885 162.829,237.301C152.58,233.156 140.781,233.279 130.615,237.625C135.988,233.628 140.381,228.304 143.301,222.28C145.049,218.674 146.285,214.786 146.936,210.833ZM162.076,171.464C154.082,177.859 148.59,187.167 146.934,197.278C145.214,186.796 139.366,177.167 130.893,170.768C140.923,175.003 152.459,175.102 162.568,171.063C162.403,171.195 162.239,171.329 162.076,171.464ZM172.567,188.129C175.425,193.25 179.357,197.74 184.044,201.264C173.91,197.049 162.244,197.032 152.098,201.217C160.453,194.771 166.188,185.151 167.842,174.725C168.636,179.413 170.252,183.978 172.567,188.129ZM204.25,170.941C195.56,177.642 189.844,187.711 188.394,198.577C186.988,187.621 181.17,177.414 172.356,170.737C182.486,174.96 194.201,175.004 204.36,170.853L204.25,170.941ZM227.143,202.206C216.604,197.124 204.096,196.738 193.26,201.146C202.401,194.056 208.269,183.252 209.233,171.724C209.38,173.306 209.621,174.882 209.945,176.436C212.119,186.845 218.372,196.196 227.143,202.206ZM214.115,170.318C220.02,172.661 226.55,173.657 232.879,173.043C235.833,172.756 238.695,172.193 241.54,171.343C242.953,170.92 244.35,170.394 245.698,169.794C246.327,169.515 246.96,169.242 247.575,168.931C247.706,168.865 247.063,169.528 245.971,170.697C239.06,175.966 233.863,183.325 231.336,191.689C230.504,194.444 229.959,197.286 229.706,200.153C228.726,189.72 223.78,179.886 215.939,172.926C213.975,171.182 211.473,169.16 211.818,169.321C212.572,169.673 213.342,170.011 214.115,170.318ZM234.849,152.373C237.964,157.959 242.363,162.852 247.64,166.477C237.132,161.418 224.652,160.99 213.848,165.404C222.598,158.699 228.468,148.523 229.903,137.594C230.605,142.766 232.31,147.816 234.849,152.373ZM250.214,161.02C248.502,150.683 242.806,141.141 234.514,134.734C244.317,138.77 255.549,138.923 265.44,135.095C260.569,138.949 256.618,143.92 253.895,149.495C252.116,153.13 250.864,157.025 250.214,161.02ZM286.251,171.259C277.881,177.958 272.291,187.832 270.91,198.472C269.372,186.938 262.779,176.318 253.215,169.72C263.659,174.743 275.988,175.152 286.748,170.854C286.581,170.988 286.416,171.123 286.251,171.259ZM328.373,170.758C319.991,177.147 314.21,186.696 312.495,197.102C310.813,186.778 305.121,177.261 296.855,170.854C307.039,174.919 318.661,174.793 328.741,170.468C328.618,170.564 328.495,170.661 328.373,170.758ZM348.753,201.078C337.983,196.753 325.597,197.149 315.131,202.175C324.554,195.681 330.998,185.344 332.71,174.036C334.422,184.947 340.617,194.955 349.559,201.423C349.29,201.308 349.024,201.187 348.753,201.078ZM337.309,237.319C346.202,230.678 352.189,220.542 353.701,209.541C355.181,220.361 360.997,230.392 369.662,237.042C359.086,232.77 346.981,233.055 336.624,237.837C336.856,237.671 337.079,237.49 337.309,237.319ZM327.695,260.46C330.359,255.793 332.102,250.61 332.813,245.285C334.229,256.259 340.083,266.344 348.884,273.045C338.104,268.681 325.8,269.026 315.294,274.019C320.364,270.487 324.633,265.827 327.695,260.46ZM307.292,254.689C304.555,250.011 300.893,245.847 296.585,242.556C307.195,246.852 319.452,246.562 329.849,241.775C320.469,248.428 314.167,258.886 312.674,270.29C311.939,264.81 310.083,259.46 307.292,254.689ZM278.143,271.04C285.553,264.45 290.472,255.227 291.798,245.398C293.22,256.155 298.934,266.09 307.496,272.749C297.714,268.718 286.481,268.573 276.598,272.349C277.123,271.925 277.638,271.488 278.143,271.04ZM266.584,256.789C263.419,250.675 258.754,245.34 253.065,241.45C263.604,246.539 276.169,246.948 287.017,242.557C278.244,249.257 272.351,259.457 270.915,270.401C270.27,265.66 268.782,261.034 266.584,256.789ZM233.848,273.379C242.506,266.954 248.493,257.206 250.229,246.555C252.004,257.245 258.036,267.07 266.785,273.471C256.159,268.945 243.83,269.061 233.294,273.797C233.48,273.659 233.665,273.52 233.848,273.379ZM224.768,255.238C222.117,250.593 218.563,246.444 214.355,243.141C224.522,247.052 236.086,246.804 246.083,242.476C237.254,249.157 231.314,259.343 229.88,270.325C229.167,265.041 227.411,259.869 224.768,255.238ZM209.211,246.678C210.97,257.27 216.935,266.973 225.548,273.372C214.976,268.943 202.747,269.098 192.291,273.799C197.868,269.807 202.444,264.416 205.478,258.266C207.275,254.622 208.547,250.686 209.211,246.678ZM235.012,224.578C238.126,230.032 242.479,234.761 247.659,238.313C236.899,233.104 224.186,232.798 213.192,237.497C222.543,230.487 228.644,219.583 229.721,207.944C230.292,213.78 232.105,219.484 235.012,224.578ZM234.846,206.378C244.641,210.432 255.914,210.597 265.805,206.773C257.553,213.153 251.889,222.695 250.213,232.987C248.369,221.866 241.91,211.764 232.622,205.383C233.353,205.737 234.096,206.068 234.846,206.378ZM266.298,201.211C255.835,196.904 243.787,197.067 233.446,201.664C242.32,195.267 248.465,185.373 250.226,174.573C251.973,185.145 257.877,194.865 266.466,201.276L266.298,201.211ZM276.251,224.881C279.007,229.632 282.706,233.709 287.014,237.094C276.714,232.928 264.851,233.072 254.652,237.478C263.535,230.771 269.503,220.494 270.943,209.458C271.679,214.872 273.504,220.159 276.251,224.881ZM307.639,206.814C299.046,213.485 293.256,223.529 291.803,234.311C290.372,223.278 284.256,212.997 275.359,206.349C286.28,210.935 298.845,210.58 309.511,205.438C308.873,205.879 308.25,206.339 307.639,206.814ZM316.696,206.53C327.024,210.851 338.936,210.805 349.23,206.405C340.318,213.079 334.309,223.308 332.82,234.343C331.346,223.407 325.474,213.229 316.696,206.53ZM317.138,224.091C319.975,229.24 323.908,233.79 328.604,237.329C318.483,233.065 306.774,232.974 296.594,237.094C304.989,230.688 310.76,221.076 312.481,210.657C313.25,215.351 314.843,219.926 317.138,224.091ZM203.305,217.533C200.583,213.23 197.073,209.418 192.993,206.368C203.51,210.774 215.585,210.609 225.991,205.955C217.151,212.343 210.999,222.21 209.211,232.975C208.304,227.501 206.27,222.22 203.305,217.533ZM171.475,221.485C169.499,225.532 168.18,229.911 167.602,234.379C166.084,223.404 160.075,213.226 151.21,206.581C161.379,210.927 173.133,211.028 183.376,206.861C178.361,210.749 174.259,215.785 171.475,221.485ZM172.258,237.387C180.998,230.714 186.844,220.587 188.342,209.701C189.683,220.335 195.132,230.339 203.566,236.996C193.48,233.097 181.995,233.289 172.052,237.55L172.258,237.387ZM291.81,167.495C291.812,167.314 291.82,167.488 291.81,167.495ZM291.827,175.955C293.771,185.951 299.485,195.076 307.575,201.25C297.648,197.084 286.283,196.961 276.257,200.868C284.213,194.744 289.797,185.806 291.75,175.953C291.758,176.049 291.782,176.144 291.788,176.239C291.802,176.145 291.819,176.05 291.827,175.955ZM183.456,129.542C183.641,129.612 183.874,129.659 184.034,129.779C183.843,129.698 183.648,129.621 183.456,129.542ZM184.362,151.137C186.297,147.322 187.648,143.195 188.328,138.971C190.062,149.524 195.939,159.237 204.497,165.655C194.433,161.358 182.836,161.238 172.675,165.297C177.55,161.52 181.572,156.634 184.362,151.137ZM412.145,209.41C413.379,215.989 414.219,222.706 414.643,229.534C412.201,220.093 406.445,211.599 398.504,205.9C401.433,207.221 404.517,208.187 407.671,208.792C409.148,209.076 410.643,209.284 412.143,209.409L412.145,209.41ZM250.409,72.502C158.146,72.502 83.084,147.563 83.084,239.827C83.084,332.089 158.146,407.15 250.409,407.15C342.672,407.15 417.733,332.089 417.733,239.827C417.733,147.563 342.672,72.502 250.409,72.502Z" style="fill:url(#_Linear1);"/>
        <path d="M250.409,411.586C155.7,411.586 78.648,334.535 78.648,239.827C78.648,145.118 155.7,68.067 250.409,68.067C345.117,68.067 422.168,145.118 422.168,239.827C422.168,334.535 345.117,411.586 250.409,411.586ZM373.273,116.962C340.455,84.144 296.82,66.07 250.409,66.07C203.997,66.07 160.362,84.144 127.544,116.962C94.725,149.78 76.651,193.415 76.651,239.827C76.651,286.238 94.725,329.873 127.544,362.691C160.362,395.51 203.997,413.583 250.409,413.583C296.82,413.583 340.455,395.51 373.273,362.691C406.092,329.873 424.165,286.238 424.165,239.827C424.165,193.415 406.092,149.78 373.273,116.962Z" style="fill:url(#_Linear2);"/>
        <path d="M250.409,420.176C150.964,420.176 70.059,339.271 70.059,239.827C70.059,140.382 150.964,59.478 250.409,59.478C349.854,59.478 430.758,140.382 430.758,239.827C430.758,339.271 349.854,420.176 250.409,420.176ZM380.862,109.374C346.017,74.528 299.688,55.338 250.409,55.338C201.13,55.338 154.801,74.528 119.956,109.374C85.109,144.219 65.919,190.548 65.919,239.827C65.919,289.105 85.109,335.435 119.956,370.28C154.801,405.125 201.13,424.314 250.409,424.314C299.688,424.314 346.017,405.125 380.862,370.28C415.707,335.435 434.897,289.105 434.897,239.827C434.897,190.548 415.707,144.219 380.862,109.374Z" style="fill:url(#_Linear3);"/>
    </g>
    <defs>
        <linearGradient id="_Linear1" x1="0" y1="0" x2="1" y2="0" gradientUnits="userSpaceOnUse" gradientTransform="matrix(284.591,175.907,-175.907,284.591,106.089,150.621)"><stop offset="0" style="stop-color:rgb(222,215,124);stop-opacity:1"/><stop offset="1" style="stop-color:rgb(255,248,179);stop-opacity:0.51"/></linearGradient>
        <linearGradient id="_Linear2" x1="0" y1="0" x2="1" y2="0" gradientUnits="userSpaceOnUse" gradientTransform="matrix(347.513,0,0,347.513,76.6518,239.826)"><stop offset="0" style="stop-color:rgb(247,249,139);stop-opacity:1"/><stop offset="1" style="stop-color:rgb(252,255,216);stop-opacity:1"/></linearGradient>
        <linearGradient id="_Linear3" x1="0" y1="0" x2="1" y2="0" gradientUnits="userSpaceOnUse" gradientTransform="matrix(368.977,0,0,368.977,65.9198,239.826)"><stop offset="0" style="stop-color:rgb(243,236,138);stop-opacity:1"/><stop offset="1" style="stop-color:rgb(253,255,234);stop-opacity:1"/></linearGradient>
    </defs>
</svg>
